#!OML:ASF E:\Steps\Project 1\Capture day 1\Session 2\Subject.ASF
:FULLY-SPECIFIED
:DEGREES
190
root 7.34836 16.2849 31.5957 -153.94 -0.648918 177.272
lowerback -28.45 -1.67138 -7.27378
upperback -1.09862 -0.365659 -0.643581
thorax 13.8548 -0.861288 3.06219
lowerneck -5.48615 -3.11308 -1.6811
upperneck 11.3321 -5.28064 6.86859
head 4.52011 -2.46004 2.07546
rclavicle -2.68359e-015 5.56597e-015
rhumerus -40.133 -21.0943 -77.0476
rradius 34.2135
rwrist -1.80754
rhand -5.61733 -52.7041
rfingers 7.12502
rthumb 20.2002 -81.6738
lclavicle -2.68359e-015 5.56597e-015
lhumerus -30.6375 9.66575 79.4416
lradius 22.8197
lwrist -3.42196
lhand -21.2946 -13.4405
lfingers 7.12502
lthumb 5.08994 16.4784
rfemur -22.9578 2.57565 21.5083
rtibia 5.5775
rfoot -18.7787 -3.97225
rtoes -28.261
lfemur -24.8613 -10.5789 -19.5758
ltibia 9.67289
lfoot -8.38538 -0.191216
ltoes -26.4154
191
root 7.34548 16.2854 31.591 -153.965 -0.594439 177.154
lowerback -28.4787 -1.69634 -7.3337
upperback -1.06185 -0.368087 -0.672228
thorax 13.9099 -0.866891 3.06202
lowerneck -5.56032 -3.02695 -1.92271
upperneck 11.4797 -5.19742 7.14608
head 4.58669 -2.41436 2.20322
rclavicle -4.91992e-015 -2.54444e-014
rhumerus -40.0309 -21.1325 -77.0239
rradius 34.0834
rwrist -1.69629
rhand -5.62978 -52.8393
rfingers 7.12502
rthumb 20.1882 -81.8103
lclavicle -4.91992e-015 -2.54444e-014
lhumerus -30.6499 9.6847 79.4561
lradius 22.8304
lwrist -3.40271
lhand -21.4781 -13.3724
lfingers 7.12502
lthumb 4.9127 16.5506
rfemur -22.8826 2.71711 21.2649
rtibia 5.55313
rfoot -18.8498 -4.05657
rtoes -27.3846
lfemur -24.7933 -10.7594 -19.7189
ltibia 9.63613
lfoot -8.35746 0.0904762
ltoes -26.6908
192
root 7.3502 16.2842 31.5933 -153.942 -0.600358 177.138
lowerback -28.4469 -1.71912 -7.38262
upperback -1.05401 -0.385433 -0.644308
thorax 13.9062 -0.877398 3.11293
lowerneck -6.12768 -3.01011 -2.20038
upperneck 12.3614 -5.27104 7.33315
head 4.96821 -2.43531 2.28855
rclavicle 3.926e-015 3.97569e-015
rhumerus -39.9628 -21.099 -77.0322
rradius 34.0346
rwrist -1.65959
rhand -5.85323 -53.1282
rfingers 7.12502
rthumb 19.9734 -82.1217
lclavicle 3.926e-015 3.97569e-015
lhumerus -30.6346 9.73668 79.4906
lradius 22.8575
lwrist -3.48635
lhand -21.3149 -13.3468
lfingers 7.12502
lthumb 5.07025 16.5725
rfemur -22.8733 3.02788 21.2144
rtibia 5.50695
rfoot -18.8296 -4.32974
rtoes -27.1045
lfemur -24.8564 -10.5822 -19.7565
ltibia 9.72359
lfoot -8.2946 -0.00249766
ltoes -26.3729
193
root 7.35219 16.2845 31.5948 -153.962 -0.625681 177.165
lowerback -28.3689 -1.68572 -7.33228
upperback -1.04963 -0.360794 -0.637619
thorax 13.8733 -0.860493 3.10424
lowerneck -5.61343 -3.06218 -1.87253
upperneck 11.4172 -5.20946 6.97018
head 4.57143 -2.42235 2.13984
rclavicle 3.08116e-015 8.74653e-015
rhumerus -39.9677 -21.2051 -76.9795
rradius 34.0014
rwrist -1.57784
rhand -6.08798 -53.3923
rfingers 7.12502
rthumb 19.7478 -82.4092
lclavicle 3.08116e-015 8.74653e-015
lhumerus -30.6121 9.76927 79.5115
lradius 22.8785
lwrist -3.55945
lhand -20.9262 -13.3821
lfingers 7.12502
lthumb 5.44559 16.5279
rfemur -22.8403 2.8429 21.304
rtibia 5.4645
rfoot -18.7793 -4.14794
rtoes -27.1765
lfemur -24.8522 -10.5257 -19.7236
ltibia 9.76965
lfoot -8.34773 -0.106876
ltoes -26.0357
194
root 7.35338 16.2843 31.5943 -153.919 -0.61988 177.211
lowerback -28.4005 -1.65204 -7.27977
upperback -1.03542 -0.330728 -0.612685
thorax 13.9024 -0.844492 3.11429
lowerneck -5.0623 -3.29272 -1.46593
upperneck 10.3837 -5.39495 6.59105
head 4.1524 -2.53116 1.96275
rclavicle 3.97569e-016 1.90833e-014
rhumerus -39.9215 -21.3062 -76.9312
rradius 33.945
rwrist -1.68998
rhand -6.47361 -53.2253
rfingers 7.12502
rthumb 19.377 -82.2799
lclavicle 3.97569e-016 1.90833e-014
lhumerus -30.5549 9.86624 79.5493
lradius 22.865
lwrist -3.65572
lhand -20.8743 -13.3612
lfingers 7.12502
lthumb 5.49571 16.5476
rfemur -22.8925 2.62735 21.404
rtibia 5.44395
rfoot -18.777 -3.86574
rtoes -27.1216
lfemur -24.9184 -10.4403 -19.671
ltibia 9.80689
lfoot -8.44415 -0.265743
ltoes -26.0678
195
root 7.35597 16.2863 31.5949 -153.887 -0.622904 177.304
lowerback -28.4289 -1.65272 -7.20211
upperback -1.00311 -0.355095 -0.544622
thorax 13.9576 -0.852004 3.13735
lowerneck -4.93479 -3.33455 -1.4305
upperneck 9.77753 -5.36676 6.26975
head 4.36886 -2.5545 2.07839
rclavicle 8.94531e-015 6.36111e-015
rhumerus -39.8066 -21.1157 -77.0145
rradius 33.9309
rwrist -2.13231
rhand -7.24293 -52.8731
rfingers 7.12502
rthumb 18.6372 -82.0003
lclavicle 8.94531e-015 6.36111e-015
lhumerus -30.4973 10.0508 79.5627
lradius 22.8209
lwrist -3.76847
lhand -21.0225 -13.4066
lfingers 7.12502
lthumb 5.3526 16.5058
rfemur -22.93 3.05863 21.4334
rtibia 5.44825
rfoot -18.7534 -4.20491
rtoes -27.2561
lfemur -25.0123 -10.3552 -19.5493
ltibia 9.89957
lfoot -8.43561 -0.311363
ltoes -26.2992
196
root 7.35947 16.2889 31.6004 -153.845 -0.623554 177.283
lowerback -28.3757 -1.69254 -7.25106
upperback -1.01831 -0.401845 -0.507081
thorax 13.9204 -0.875541 3.18766
lowerneck -5.11922 -3.22437 -1.45707
upperneck 10.4751 -5.25535 6.24015
head 4.17412 -2.47126 1.86081
rclavicle -5.26779e-015 2.06736e-014
rhumerus -39.7906 -20.8686 -77.0741
rradius 33.9459
rwrist -2.51834
rhand -7.16305 -52.6432
rfingers 7.12502
rthumb 18.714 -81.763
lclavicle -5.26779e-015 2.06736e-014
lhumerus -30.5318 10.0796 79.5703
lradius 22.835
lwrist -3.70057
lhand -21.0207 -13.5425
lfingers 7.12502
lthumb 5.35431 16.3698
rfemur -23.0308 3.30361 21.3809
rtibia 5.54403
rfoot -18.7544 -4.49659
rtoes -27.6572
lfemur -25.1379 -10.3135 -19.5648
ltibia 10.0173
lfoot -8.39407 -0.279185
ltoes -27.0768
197
root 7.36115 16.2889 31.5995 -153.855 -0.472644 177.321
lowerback -28.3625 -1.63027 -7.242
upperback -1.03283 -0.326289 -0.512945
thorax 13.8894 -0.840501 3.20529
lowerneck -5.09338 -3.2077 -1.37742
upperneck 10.4862 -5.22587 6.12354
head 4.167 -2.45932 1.81436
rclavicle 1.49089e-015 1.33186e-014
rhumerus -39.8341 -20.9065 -77.011
rradius 33.8695
rwrist -2.86907
rhand -6.93035 -52.4931
rfingers 7.12502
rthumb 18.9378 -81.5912
lclavicle 1.49089e-015 1.33186e-014
lhumerus -30.6226 9.95032 79.593
lradius 22.8961
lwrist -3.63254
lhand -21.2216 -13.553
lfingers 7.12502
lthumb 5.16039 16.3642
rfemur -23.1081 3.05998 21.4822
rtibia 5.68499
rfoot -18.856 -4.11808
rtoes -27.4768
lfemur -25.0362 -10.1952 -19.5717
ltibia 9.86537
lfoot -8.36881 -0.240329
ltoes -27.2282
198
root 7.36247 16.2953 31.6063 -153.836 -0.530854 177.499
lowerback -28.2656 -1.55027 -7.03014
upperback -1.06069 -0.299215 -0.497448
thorax 13.8119 -0.81145 3.1198
lowerneck -5.04082 -3.2716 -1.35648
upperneck 9.94033 -5.27937 6.09752
head 4.43467 -2.51138 2.00985
rclavicle 1.19271e-015 7.35503e-015
rhumerus -39.821 -21.4046 -76.7167
rradius 33.6827
rwrist -2.08021
rhand -7.13684 -52.8424
rfingers 7.12502
rthumb 18.7392 -81.9598
lclavicle 1.19271e-015 7.35503e-015
lhumerus -30.6099 9.85785 79.6001
lradius 22.8956
lwrist -3.728
lhand -21.4222 -13.5701
lfingers 7.12502
lthumb 4.9667 16.3517
rfemur -23.2199 3.21486 21.6178
rtibia 5.76073
rfoot -18.9328 -4.1071
rtoes -26.2376
lfemur -25.1678 -10.2973 -19.2411
ltibia 9.94125
lfoot -8.39834 -0.147134
ltoes -26.6717
199
root 7.36165 16.2889 31.6015 -153.782 -0.594339 177.407
lowerback -28.3867 -1.57759 -7.03526
upperback -1.01965 -0.314753 -0.540527
thorax 13.9165 -0.821458 3.06795
lowerneck -5.16512 -3.31254 -1.29248
upperneck 10.3503 -5.38541 6.28704
head 4.14663 -2.52764 1.84106
rclavicle -2.78299e-015 -1.19271e-015
rhumerus -39.7747 -21.4677 -76.7679
rradius 33.625
rwrist -2.12509
rhand -6.3693 -52.8655
rfingers 7.12502
rthumb 19.4773 -81.91
lclavicle -2.78299e-015 -1.19271e-015
lhumerus -30.5465 9.86852 79.5774
lradius 22.8682
lwrist -3.79681
lhand -21.3791 -13.5467
lfingers 7.12502
lthumb 5.00832 16.3741
rfemur -23.1748 3.27916 21.5014
rtibia 5.65355
rfoot -18.9745 -4.159
rtoes -25.8781
lfemur -25.2245 -10.4149 -19.3444
ltibia 10.0166
lfoot -8.40361 -0.131863
ltoes -26.9038
200
root 7.36329 16.2898 31.6025 -153.784 -0.569095 177.245
lowerback -28.3466 -1.63421 -7.17502
upperback -1.00422 -0.341094 -0.57199
thorax 13.9166 -0.841182 3.09976
lowerneck -5.39899 -3.25663 -1.3383
upperneck 10.6698 -5.34029 6.31188
head 4.28305 -2.49878 1.85205
rclavicle 5.26779e-015 1.09332e-014
rhumerus -39.7942 -21.1965 -76.9309
rradius 33.7881
rwrist -2.41268
rhand -7.22911 -52.8001
rfingers 7.12502
rthumb 18.6505 -81.926
lclavicle 5.26779e-015 1.09332e-014
lhumerus -30.5942 9.9896 79.5442
lradius 22.8902
lwrist -3.87141
lhand -21.4061 -13.4795
lfingers 7.12502
lthumb 4.98225 16.4419
rfemur -23.1604 3.33749 21.3026
rtibia 5.62895
rfoot -18.9368 -4.38296
rtoes -26.7036
lfemur -25.2013 -10.4966 -19.5346
ltibia 9.9838
lfoot -8.34855 0.00120968
ltoes -26.7683
